<?xml version="1.0" standalone="no"?>
<!DOCTYPE svg PUBLIC "-//W3C//DTD SVG 20010904//EN"
 "http://www.w3.org/TR/2001/REC-SVG-20010904/DTD/svg10.dtd">
<svg version="1.0" xmlns="http://www.w3.org/2000/svg"
 width="2000.000000pt" height="2000.000000pt" viewBox="0 0 2000.000000 2000.000000"
 preserveAspectRatio="xMidYMid meet">
<metadata>
Created by potrace 1.14, written by Peter Selinger 2001-2017
</metadata>
<g transform="translate(0.000000,2000.000000) scale(0.100000,-0.100000)"
fill="#000000" stroke="none">
<path d="M7030 15573 c-14 -2 -47 -11 -74 -19 -27 -8 -62 -14 -78 -14 -15 0
-45 -9 -65 -20 -21 -11 -48 -20 -60 -20 -12 0 -34 -7 -50 -15 -15 -8 -57 -28
-93 -45 -36 -17 -81 -41 -100 -52 -58 -35 -205 -132 -210 -139 -3 -3 -34 -30
-70 -60 -123 -101 -388 -381 -460 -487 -14 -20 -50 -71 -80 -112 -30 -42 -59
-83 -65 -91 -5 -9 -17 -27 -26 -40 -64 -93 -132 -203 -161 -259 -7 -14 -27
-46 -45 -72 -18 -26 -33 -53 -33 -59 0 -6 -17 -41 -37 -77 -21 -37 -45 -80
-54 -97 -25 -44 -103 -203 -126 -255 -42 -93 -76 -161 -83 -165 -4 -3 -10 -18
-14 -35 -3 -17 -22 -63 -41 -102 -19 -40 -35 -78 -35 -85 0 -8 -9 -31 -19 -51
-30 -59 -61 -132 -61 -145 -1 -6 -9 -30 -20 -52 -11 -22 -19 -48 -20 -57 0 -9
-4 -20 -10 -23 -5 -3 -17 -32 -26 -63 -9 -31 -23 -66 -30 -77 -8 -11 -14 -29
-14 -40 -1 -11 -9 -38 -20 -60 -11 -22 -19 -52 -20 -66 0 -15 -6 -32 -14 -38
-8 -7 -17 -31 -21 -54 -4 -23 -13 -51 -20 -63 -8 -12 -17 -39 -21 -60 -4 -21
-13 -48 -20 -59 -8 -11 -14 -29 -14 -40 -1 -11 -8 -38 -16 -60 -8 -22 -21 -60
-29 -85 -7 -25 -18 -58 -23 -75 -6 -16 -20 -64 -32 -105 -12 -41 -30 -102 -41
-135 -10 -33 -19 -69 -19 -80 0 -11 -7 -33 -15 -48 -8 -15 -17 -45 -21 -65 -3
-20 -14 -64 -24 -97 -24 -83 -40 -141 -52 -200 -6 -27 -16 -66 -24 -85 -8 -19
-18 -60 -23 -90 -6 -30 -17 -80 -25 -110 -9 -30 -16 -65 -16 -78 0 -13 -6 -35
-14 -50 -7 -15 -17 -53 -21 -85 -3 -32 -12 -73 -20 -90 -7 -18 -16 -59 -20
-92 -4 -33 -11 -68 -17 -78 -5 -10 -16 -55 -24 -100 -18 -107 -31 -173 -54
-277 -10 -47 -22 -107 -25 -135 -4 -27 -13 -69 -21 -93 -8 -23 -14 -63 -14
-87 0 -24 -6 -64 -14 -87 -8 -24 -19 -85 -26 -137 -6 -51 -15 -101 -20 -110
-4 -9 -11 -50 -15 -91 -4 -41 -13 -97 -20 -125 -7 -27 -18 -96 -24 -151 -6
-56 -15 -113 -20 -126 -5 -13 -12 -64 -16 -113 -3 -50 -13 -115 -20 -145 -7
-30 -16 -98 -20 -150 -3 -52 -12 -122 -20 -155 -8 -33 -17 -105 -20 -160 -4
-55 -13 -131 -20 -170 -7 -38 -16 -115 -20 -170 -3 -55 -13 -144 -21 -197 -8
-54 -14 -119 -14 -146 0 -26 -9 -119 -19 -207 -11 -88 -22 -219 -26 -291 -3
-73 -10 -160 -15 -195 -5 -35 -14 -158 -20 -274 -6 -115 -15 -253 -20 -305 -6
-52 -15 -241 -21 -420 -5 -179 -12 -356 -15 -395 -11 -161 -19 -502 -19 -825
l0 -345 798 -3 c633 -2 798 0 802 10 2 7 6 229 9 493 3 264 8 536 11 605 2 69
9 332 15 585 6 253 13 476 15 495 2 19 9 152 15 295 6 143 15 325 21 405 5 80
14 231 20 335 5 105 16 262 24 350 8 88 17 216 21 285 3 69 11 172 19 230 8
58 16 161 20 230 3 69 12 170 20 225 8 55 17 143 20 195 3 52 12 142 20 200 7
58 16 143 20 190 3 47 12 123 20 170 8 47 19 130 24 185 5 55 15 138 21 185 6
47 15 119 20 160 5 41 14 113 20 160 6 47 17 119 25 160 8 41 19 116 24 165 5
50 14 101 19 115 6 14 13 62 17 105 4 44 16 119 26 167 10 48 19 103 19 121 0
18 7 58 15 90 8 31 19 87 24 124 10 76 36 217 52 278 5 22 16 78 23 125 8 47
18 96 24 110 5 14 13 52 17 85 4 33 11 68 17 78 5 10 16 53 23 95 21 116 35
180 56 251 11 35 19 73 19 84 0 12 8 48 19 81 22 70 37 128 55 206 12 50 30
111 58 195 5 17 16 55 23 85 8 30 21 75 29 100 54 155 80 230 92 270 22 75 44
132 59 154 8 11 15 29 15 40 0 10 9 38 20 62 11 24 29 64 40 88 11 24 20 47
20 52 0 13 166 338 209 409 67 112 159 230 238 305 113 110 178 147 301 174
67 14 80 14 155 -1 99 -20 180 -61 277 -139 96 -77 243 -260 302 -374 7 -14
25 -44 40 -67 40 -61 155 -293 163 -328 4 -16 12 -37 19 -45 6 -8 22 -42 35
-75 13 -33 30 -73 37 -90 30 -71 64 -163 64 -176 1 -8 9 -32 20 -54 11 -22 19
-48 20 -58 0 -10 9 -35 20 -57 11 -22 20 -50 20 -62 1 -13 9 -41 20 -63 11
-22 19 -48 20 -58 0 -10 7 -31 15 -46 8 -16 17 -48 21 -72 4 -24 12 -55 19
-69 7 -14 16 -45 20 -70 4 -25 14 -57 21 -72 8 -15 14 -36 14 -48 0 -11 9 -46
20 -77 11 -32 20 -66 20 -78 0 -11 8 -49 19 -85 28 -96 52 -198 62 -260 4 -31
15 -72 24 -92 8 -21 15 -53 15 -72 0 -19 9 -63 20 -98 11 -34 20 -77 20 -94 0
-17 7 -50 15 -73 8 -23 19 -77 24 -120 6 -42 14 -88 19 -101 5 -14 12 -50 16
-80 6 -50 22 -140 57 -315 6 -33 17 -100 24 -150 7 -49 25 -166 40 -260 15
-93 29 -186 31 -205 5 -42 38 -282 60 -440 9 -63 20 -164 24 -225 5 -60 14
-132 20 -159 6 -27 15 -110 21 -185 6 -75 15 -156 20 -180 5 -24 14 -113 19
-198 6 -85 15 -174 20 -197 5 -23 14 -128 20 -232 5 -105 14 -215 20 -244 6
-30 15 -153 20 -274 6 -122 14 -252 19 -291 5 -38 12 -137 15 -220 14 -332 17
-395 26 -510 6 -66 15 -325 21 -575 5 -250 14 -549 19 -665 5 -115 9 -337 9
-492 1 -163 5 -284 10 -288 15 -8 1574 -6 1582 2 5 5 13 315 18 690 5 375 11
685 14 690 3 5 8 128 12 273 7 270 16 476 34 770 6 91 15 244 21 340 11 192
21 331 50 695 24 292 30 363 70 758 6 56 15 149 21 207 5 58 14 134 20 170 5
36 14 110 19 165 6 55 15 127 20 160 6 33 15 98 20 145 6 47 15 114 20 150 6
36 17 119 25 184 8 66 17 127 21 135 3 9 12 63 20 121 29 217 45 317 59 366 8
28 15 66 15 85 0 19 7 63 16 99 8 35 21 102 29 150 7 47 18 103 24 125 5 22
14 67 20 100 5 33 14 83 21 110 6 28 20 91 30 140 11 50 25 110 31 135 6 25
16 77 24 115 7 39 18 81 24 95 6 14 15 50 20 80 5 30 14 69 20 85 9 28 24 84
55 215 7 30 17 64 23 75 6 11 13 40 17 64 4 24 13 56 21 72 8 15 15 38 15 51
1 13 8 41 16 63 9 22 20 58 25 80 5 22 16 54 23 70 18 40 45 120 57 169 5 21
16 48 24 60 8 11 15 30 15 41 0 11 6 29 14 40 7 11 17 36 21 55 4 19 13 46 20
60 24 44 55 116 55 125 0 9 25 61 113 240 32 66 63 125 68 131 5 6 21 33 35
60 32 60 111 179 130 195 8 6 14 17 14 23 1 33 236 247 300 273 19 8 42 21 50
27 8 7 49 19 90 25 41 7 81 15 89 17 20 6 149 -24 186 -43 106 -55 203 -136
287 -240 58 -71 154 -209 176 -253 7 -14 30 -56 52 -95 22 -38 45 -81 51 -95
17 -40 50 -112 65 -143 8 -16 26 -59 40 -95 14 -37 34 -85 44 -107 10 -22 28
-71 40 -110 13 -38 29 -82 36 -97 8 -14 14 -32 14 -39 0 -7 8 -31 18 -53 11
-23 24 -61 31 -86 36 -129 48 -167 58 -185 5 -11 13 -40 17 -64 4 -24 13 -56
21 -72 8 -15 15 -38 15 -51 1 -13 8 -41 16 -63 9 -22 20 -58 24 -80 8 -39 26
-106 56 -213 9 -29 19 -74 24 -100 9 -46 31 -139 51 -217 6 -22 16 -74 24
-115 7 -41 18 -86 23 -100 5 -14 13 -50 17 -80 4 -30 13 -77 20 -105 8 -27 17
-75 21 -105 3 -30 10 -66 15 -79 5 -12 16 -64 24 -115 8 -50 19 -113 25 -141
29 -153 42 -228 51 -300 5 -44 16 -105 24 -136 8 -31 15 -79 15 -105 0 -27 5
-67 11 -89 6 -22 15 -74 21 -115 5 -41 18 -127 28 -190 18 -112 28 -187 50
-375 6 -49 15 -121 21 -160 6 -38 15 -113 20 -165 5 -52 14 -129 20 -170 5
-41 16 -148 24 -238 8 -89 17 -166 19 -171 3 -4 10 -71 16 -147 5 -76 17 -193
25 -259 8 -66 19 -195 25 -288 6 -92 15 -193 20 -225 6 -31 10 -91 10 -132 0
-41 9 -183 20 -315 10 -132 24 -332 30 -445 6 -113 13 -221 15 -240 2 -19 9
-172 15 -340 6 -168 13 -343 15 -390 3 -47 9 -168 15 -270 5 -102 12 -537 16
-967 5 -595 10 -785 19 -793 8 -7 279 -9 791 -8 l779 3 0 350 c0 327 -8 657
-19 820 -3 39 -10 223 -16 410 -5 187 -15 369 -20 405 -5 36 -12 146 -16 245
-3 99 -12 232 -20 295 -8 63 -17 174 -20 245 -3 72 -12 177 -20 235 -7 58 -18
173 -24 255 -6 83 -14 168 -20 190 -5 22 -13 101 -19 176 -6 75 -14 156 -20
180 -5 24 -12 87 -16 139 -4 52 -11 111 -16 131 -5 19 -13 80 -19 135 -5 54
-16 142 -24 194 -8 52 -24 158 -35 235 -49 328 -60 399 -78 495 -9 47 -19 114
-23 150 -4 36 -12 77 -18 91 -5 14 -13 52 -16 85 -4 32 -15 100 -26 149 -30
146 -40 196 -55 275 -7 41 -20 104 -28 140 -17 71 -31 136 -52 245 -7 39 -18
81 -23 95 -5 14 -13 50 -17 80 -4 30 -13 71 -20 90 -8 19 -16 57 -20 83 -3 26
-12 62 -19 80 -8 18 -17 55 -21 82 -4 28 -11 58 -17 68 -5 10 -14 45 -19 79
-5 33 -16 73 -24 89 -8 15 -15 38 -15 51 0 21 -10 60 -59 223 -10 33 -28 96
-41 140 -12 44 -30 107 -41 140 -11 33 -19 66 -19 73 0 8 -6 28 -14 45 -18 40
-66 198 -66 215 0 7 -6 23 -14 35 -8 12 -17 40 -21 62 -4 22 -11 45 -16 51 -5
7 -16 34 -23 60 -8 27 -26 81 -41 119 -14 39 -31 87 -36 109 -5 21 -16 48 -24
60 -8 11 -15 29 -15 39 0 10 -7 31 -15 45 -20 38 -65 156 -65 173 0 8 -6 23
-14 34 -7 11 -26 52 -41 90 -14 39 -33 84 -40 100 -46 100 -65 145 -65 151 0
7 -151 321 -170 354 -5 8 -41 79 -81 158 -39 78 -75 142 -79 142 -5 0 -12 10
-16 23 -4 12 -28 57 -53 100 -25 42 -53 89 -61 104 -8 14 -22 34 -30 43 -8 9
-28 38 -45 65 -64 103 -80 127 -169 245 -43 58 -91 118 -106 135 -15 16 -47
53 -72 80 -25 28 -56 63 -69 78 -21 25 -180 173 -269 252 -19 17 -49 39 -67
50 -18 11 -57 37 -87 58 -137 93 -336 179 -521 222 -103 25 -334 31 -410 12
-33 -8 -80 -18 -105 -22 -106 -16 -297 -90 -415 -160 -22 -13 -53 -31 -70 -39
-16 -9 -55 -34 -85 -56 -30 -23 -66 -48 -80 -58 -14 -9 -41 -31 -60 -49 -19
-18 -39 -33 -43 -33 -13 0 -266 -251 -323 -320 -29 -36 -62 -76 -74 -90 -96
-116 -287 -387 -346 -490 -8 -14 -23 -38 -34 -55 -18 -28 -95 -161 -113 -195
-5 -8 -30 -55 -56 -105 -94 -175 -261 -516 -261 -533 0 -6 -16 -41 -35 -78
-19 -37 -35 -72 -35 -78 0 -6 -9 -28 -20 -49 -11 -20 -20 -43 -20 -49 0 -7 -7
-26 -16 -43 -19 -37 -64 -148 -64 -161 -1 -5 -9 -27 -20 -49 -11 -22 -19 -46
-20 -53 0 -6 -9 -29 -20 -49 -11 -21 -20 -46 -20 -56 0 -10 -9 -35 -20 -57
-11 -22 -20 -46 -20 -55 0 -9 -9 -33 -20 -55 -11 -22 -20 -47 -20 -57 -1 -10
-9 -36 -20 -58 -11 -22 -20 -49 -20 -60 0 -11 -9 -38 -20 -60 -11 -22 -19 -48
-20 -58 0 -11 -6 -33 -14 -50 -8 -18 -19 -50 -24 -72 -6 -22 -15 -53 -21 -70
-27 -79 -44 -135 -54 -187 -7 -31 -17 -62 -22 -67 -14 -14 -55 14 -55 37 0 18
-32 130 -57 197 -8 22 -21 65 -28 95 -15 64 -40 141 -61 188 -8 18 -14 40 -14
50 0 9 -7 30 -16 47 -8 16 -20 51 -25 77 -6 26 -17 52 -25 59 -8 6 -14 22 -14
35 0 13 -9 41 -20 61 -11 21 -20 47 -20 58 0 12 -7 30 -15 41 -8 10 -15 25
-15 32 0 13 -37 115 -65 177 -7 17 -23 57 -35 90 -27 72 -55 137 -81 187 -10
20 -19 42 -19 49 0 7 -18 51 -41 98 -22 47 -47 100 -54 116 -21 49 -195 397
-220 440 -13 22 -33 59 -45 82 -12 23 -31 57 -43 75 -12 18 -28 44 -35 58 -7
14 -21 39 -32 55 -11 17 -27 44 -37 61 -10 17 -31 51 -48 75 -16 24 -34 51
-40 61 -5 9 -25 38 -44 65 -19 26 -54 77 -78 113 -25 35 -48 67 -52 70 -4 3
-53 61 -108 130 -92 114 -335 364 -374 386 -9 5 -32 21 -50 37 -89 72 -111 87
-234 165 -11 7 -34 19 -52 27 -17 8 -34 19 -37 24 -4 5 -19 12 -35 16 -16 3
-35 12 -41 20 -6 7 -27 16 -48 20 -20 4 -44 12 -52 19 -27 22 -189 65 -320 86
-56 9 -265 11 -310 3z"/>
</g>
</svg>
